<svg width="397" height="114" viewBox="0 0 397 114" fill="none" xmlns="http://www.w3.org/2000/svg">
<path d="M330.091 92L327.05 81.8303H301.783L298.743 92H275.048L301.364 19.8686H328.308L354.624 92H330.091ZM306.606 65.6846H322.227L314.679 39.9983H314.259L306.606 65.6846ZM364.407 92V19.8686H387.578V92H364.407Z" fill="url(#paint0_linear_1_5)"/>
<path d="M44.8724 36.6434H69.1958L48.7516 58.9747L69.72 92H46.0257L34.3882 73.0236L27.1541 80.048V92H6.29053V15.8846H27.1541V57.8215L44.8724 36.6434ZM103.583 35.3853C112.04 35.3853 118.925 36.8181 124.237 39.6838C129.549 42.4796 132.205 47.0577 132.205 53.4181V75.0156C132.205 76.2038 132.485 77.1823 133.044 77.9512C133.603 78.72 134.442 79.1044 135.56 79.1044H139.334V91.1613C139.125 91.3011 138.565 91.5457 137.657 91.8952C136.818 92.1747 135.595 92.4543 133.987 92.7339C132.38 93.0834 130.528 93.2581 128.431 93.2581C124.377 93.2581 121.022 92.664 118.366 91.4758C115.78 90.2177 113.997 88.5053 113.019 86.3385C110.363 88.4354 107.392 90.1128 104.107 91.3709C100.822 92.6291 96.9781 93.2581 92.5748 93.2581C79.5743 93.2581 73.0741 88.0859 73.0741 77.7415C73.0741 72.3596 74.507 68.2707 77.3727 65.4749C80.3082 62.6093 84.5019 60.6522 89.9537 59.6038C95.4055 58.5554 102.535 58.0312 111.341 58.0312V55.3053C111.341 53.1385 110.573 51.496 109.035 50.3777C107.567 49.2594 105.645 48.7002 103.269 48.7002C101.102 48.7002 99.2148 49.0846 97.6072 49.8535C96.0695 50.6223 95.3007 51.8455 95.3007 53.5229V53.9423H74.7516C74.6817 53.5928 74.6468 53.1036 74.6468 52.4745C74.6468 47.2324 77.128 43.0737 82.0905 39.9983C87.123 36.9229 94.2872 35.3853 103.583 35.3853ZM111.341 67.8863C105.4 67.8863 100.997 68.5503 98.1314 69.8783C95.3356 71.1364 93.9377 72.8488 93.9377 75.0156C93.9377 78.5103 96.3141 80.2577 101.067 80.2577C103.793 80.2577 106.169 79.5238 108.196 78.056C110.293 76.5882 111.341 74.7709 111.341 72.6042V67.8863ZM184.311 35.3853C190.741 35.3853 195.564 37.1676 198.779 40.7322C201.994 44.2968 203.602 49.4341 203.602 56.144V92H182.738V58.6602C182.738 56.2838 182.109 54.3966 180.851 52.9987C179.663 51.5309 177.95 50.7971 175.714 50.7971C173.128 50.7971 171.031 51.6358 169.423 53.3133C167.816 54.9907 167.012 57.0526 167.012 59.4989V92H146.148V36.6434H163.238L164.6 45.0307C166.767 42.0952 169.598 39.7537 173.093 38.0063C176.657 36.2589 180.397 35.3853 184.311 35.3853ZM242.392 35.3853C249.801 35.3853 256.057 36.8531 261.159 39.7886C266.331 42.6543 268.918 47.1276 268.918 53.2084H249.522C249.522 51.1815 248.613 49.7486 246.796 48.9099C245.538 48.2109 243.965 47.8615 242.078 47.8615C237.046 47.8615 234.529 49.0497 234.529 51.4261C234.529 52.7541 235.403 53.6977 237.15 54.2568C238.898 54.816 241.763 55.4101 245.747 56.0392C250.64 56.7381 254.729 57.5768 258.014 58.5554C261.299 59.464 264.165 61.1415 266.611 63.5878C269.057 65.9642 270.28 69.3192 270.28 73.6526C270.28 80.712 267.624 85.7444 262.312 88.7499C257.07 91.7554 250.186 93.2581 241.659 93.2581C236.766 93.2581 232.153 92.5941 227.819 91.2661C223.486 89.8682 219.956 87.7364 217.23 84.8707C214.504 82.0051 213.142 78.3705 213.142 73.9672H232.537V74.3865C232.607 76.7629 233.586 78.4404 235.473 79.4189C237.43 80.3276 239.492 80.7819 241.659 80.7819C247.46 80.7819 250.36 79.4189 250.36 76.6931C250.36 75.2952 249.452 74.2817 247.635 73.6526C245.817 73.0236 242.847 72.3596 238.723 71.6606C233.76 70.8219 229.672 69.9133 226.456 68.9347C223.311 67.9562 220.55 66.3137 218.174 64.0072C215.798 61.6307 214.609 58.3457 214.609 54.152C214.609 47.3722 217.16 42.5495 222.263 39.6838C227.435 36.8181 234.145 35.3853 242.392 35.3853Z" fill="black"/>
<defs>
<linearGradient id="paint0_linear_1_5" x1="335.5" y1="0" x2="335.5" y2="114" gradientUnits="userSpaceOnUse">
<stop offset="0.375" stop-color="#FF0000"/>
<stop offset="1" stop-color="#FF0000" stop-opacity="0"/>
</linearGradient>
</defs>
</svg>
